<?xml version="1.0" encoding="UTF-8" standalone="no"?>
<!-- Created with Inkscape (http://www.inkscape.org/) -->

<svg
   width="180.62531mm"
   height="143.02917mm"
   viewBox="0 0 180.62531 143.02917"
   version="1.1"
   id="svg1"
   xml:space="preserve"
   inkscape:version="1.4.2 (ebf0e940d0, 2025-05-08)"
   sodipodi:docname="afilaxy_master_2025logo.svg"
   xmlns:inkscape="http://www.inkscape.org/namespaces/inkscape"
   xmlns:sodipodi="http://sodipodi.sourceforge.net/DTD/sodipodi-0.dtd"
   xmlns="http://www.w3.org/2000/svg"
   xmlns:svg="http://www.w3.org/2000/svg"><sodipodi:namedview
     id="namedview1"
     pagecolor="#ffffff"
     bordercolor="#000000"
     borderopacity="0.25"
     inkscape:showpageshadow="2"
     inkscape:pageopacity="0.0"
     inkscape:pagecheckerboard="0"
     inkscape:deskcolor="#d1d1d1"
     inkscape:document-units="mm"
     inkscape:zoom="0.54520202"
     inkscape:cx="337.48958"
     inkscape:cy="267.79064"
     inkscape:window-width="1440"
     inkscape:window-height="863"
     inkscape:window-x="0"
     inkscape:window-y="0"
     inkscape:window-maximized="1"
     inkscape:current-layer="layer1" /><defs
     id="defs1" /><g
     inkscape:label="Layer 1"
     inkscape:groupmode="layer"
     id="layer1"
     transform="translate(-15.291779,-77.868338)"><g
       id="g1"
       transform="translate(-5.3382355,-4.8529414)"><path
         style="fill:#236fa6"
         d="m 176.73893,225.62945 c 0.25467,-0.0665 0.67138,-0.0665 0.92605,0 0.25466,0.0666 0.0463,0.121 -0.46302,0.121 -0.50933,0 -0.71769,-0.0545 -0.46303,-0.121 z m -4.54317,-2.61779 c 0.0127,-0.30823 0.0754,-0.37092 0.15985,-0.15986 0.0764,0.191 0.067,0.4192 -0.0209,0.50712 -0.0879,0.0879 -0.15045,-0.0684 -0.13896,-0.34726 z M 30.821234,211.87827 c 0.181901,-0.0734 0.479557,-0.0734 0.661458,0 0.181901,0.0734 0.03307,0.13345 -0.330729,0.13345 -0.363802,0 -0.51263,-0.06 -0.330729,-0.13345 z m 1.98941,-0.008 c 0.257431,-0.0671 0.614619,-0.0627 0.79375,0.01 0.179132,0.0725 -0.03149,0.12736 -0.468056,0.12197 -0.436562,-0.005 -0.583125,-0.0647 -0.325694,-0.13178 z m 84.810456,0.003 c 0.191,-0.0764 0.4192,-0.067 0.50712,0.0209 0.0879,0.0879 -0.0683,0.15046 -0.34727,0.13897 -0.30822,-0.0127 -0.37092,-0.0754 -0.15985,-0.15985 z m 2.11667,0 c 0.19099,-0.0764 0.4192,-0.067 0.50711,0.0209 0.0879,0.0879 -0.0683,0.15046 -0.34726,0.13897 -0.30823,-0.0127 -0.37092,-0.0754 -0.15985,-0.15985 z m -77.561502,-0.7894 c -0.09701,-0.097 -0.174566,-0.30538 -0.172337,-0.46302 0.0025,-0.1765 0.08263,-0.16297 0.208563,0.0352 0.136673,0.21509 1.254341,0.34981 3.369386,0.40613 l 3.164874,0.0843 -3.197049,0.0569 c -1.758376,0.0313 -3.276423,-0.0225 -3.373437,-0.11949 z m 18.421593,-0.0201 c 0.988318,-0.051 2.53613,-0.0507 3.439583,8.5e-4 0.903453,0.0515 0.09483,0.0933 -1.796941,0.0928 -1.891771,-4.7e-4 -2.63096,-0.0426 -1.642642,-0.0937 z m 18.564902,-0.13427 c -0.06972,-0.1819 -0.09455,-5.9862 -0.05519,-12.89844 l 0.07157,-12.56771 0.06349,12.75824 0.06349,12.75824 3.373438,0.0827 3.373437,0.0827 -3.381741,0.0575 c -2.505128,0.0426 -3.414599,-0.0282 -3.508498,-0.27322 z m 16.878259,0.13453 c 0.982266,-0.0509 2.58961,-0.0509 3.571875,0 0.982263,0.0509 0.178594,0.0926 -1.785937,0.0926 -1.964531,0 -2.768203,-0.0417 -1.785938,-0.0926 z m 32.853178,-0.16078 c -0.0753,-0.19634 -0.0949,-1.17861 -0.0435,-2.18282 l 0.0935,-1.82583 0.0518,2.04238 0.0518,2.04238 3.24115,0.0832 3.24114,0.0832 -3.24945,0.0572 c -2.52341,0.0444 -3.28005,-0.0225 -3.38643,-0.29977 z m 11.66297,0.17948 c 3.1904,-0.192 6.68786,-0.20314 6.57451,-0.0209 -0.0679,0.10914 -1.8726,0.17641 -4.01044,0.14949 -2.13785,-0.0269 -3.29168,-0.0848 -2.56407,-0.12855 z m 22.22499,3.5e-4 c 3.21594,-0.19266 6.48343,-0.20339 6.48289,-0.0213 -3.3e-4,0.10914 -1.75677,0.17641 -3.9032,0.14949 -2.14643,-0.0269 -3.30729,-0.0846 -2.57969,-0.1282 z m -121.851671,-2.7999 c 0.648762,-0.69122 1.214308,-1.25677 1.25677,-1.25677 0.198672,0 -0.01138,0.23755 -1.179567,1.33398 l -1.256771,1.17957 z m -18.278941,-0.39687 c -0.329107,-0.41964 -0.319749,-0.429 0.0999,-0.0999 0.254661,0.19972 0.463021,0.40808 0.463021,0.46303 0,0.21776 -0.217272,0.0776 -0.562916,-0.36313 z m 112.553722,-1.38906 c 0,-0.65485 0.0516,-0.92274 0.11466,-0.59532 0.0631,0.32743 0.0631,0.86321 0,1.19063 -0.0631,0.32742 -0.11466,0.0595 -0.11466,-0.59531 z m -102.135078,0.0822 c 0.254662,-0.0666 0.67138,-0.0666 0.926042,0 0.254661,0.0665 0.0463,0.121 -0.463021,0.121 -0.509323,0 -0.717682,-0.0545 -0.463021,-0.121 z m 86.654118,-0.005 c 0.32912,-0.0633 0.80537,-0.0609 1.05834,0.005 0.25296,0.0662 -0.0163,0.118 -0.5984,0.11507 -0.58208,-0.003 -0.78905,-0.0571 -0.45994,-0.12041 z m -91.111027,-1.7311 -0.504028,-0.59531 0.595312,0.50403 c 0.559447,0.47366 0.715762,0.68659 0.504028,0.68659 -0.05021,0 -0.318097,-0.26789 -0.595312,-0.59531 z m 10.740763,-0.56291 c 0,-0.0549 0.208359,-0.26331 0.463021,-0.46303 0.419644,-0.3291 0.429002,-0.31974 0.09989,0.0999 -0.345644,0.44073 -0.562916,0.58089 -0.562916,0.36313 z m 68.049494,-1.09073 c 0.005,-0.43657 0.0647,-0.58313 0.13177,-0.3257 0.0671,0.25743 0.0627,0.61462 -0.01,0.79375 -0.0725,0.17913 -0.12736,-0.0315 -0.12197,-0.46805 z M 20.630014,201.7345 c 0,-0.50933 0.05445,-0.71769 0.121,-0.46302 0.06655,0.25466 0.06655,0.67138 0,0.92604 -0.06655,0.25466 -0.121,0.0463 -0.121,-0.46302 z m 86.763726,-1.32292 c 0,-0.3638 0.0601,-0.51263 0.13345,-0.33073 0.0734,0.1819 0.0734,0.47956 0,0.66146 -0.0734,0.1819 -0.13345,0.0331 -0.13345,-0.33073 z m -65.616668,-1.32292 c 0,-0.3638 0.06005,-0.51263 0.133452,-0.33073 0.0734,0.18191 0.0734,0.47956 0,0.66146 -0.0734,0.1819 -0.133452,0.0331 -0.133452,-0.33073 z M 128.48718,198.353 c -0.0872,-0.52579 -0.0483,-0.77262 0.0985,-0.62583 0.13331,0.13331 0.19808,0.524 0.14393,0.86821 -0.0833,0.52961 -0.12057,0.49234 -0.24238,-0.24238 z m -93.945243,-2.09066 c 0.190996,-0.0764 0.419199,-0.067 0.507118,0.0209 0.08792,0.0879 -0.06835,0.15045 -0.347266,0.13896 -0.308224,-0.0127 -0.370919,-0.0754 -0.159852,-0.15985 z m 86.502213,0.006 c 0.1819,-0.0734 0.47955,-0.0734 0.66145,0 0.18191,0.0734 0.0331,0.13345 -0.33072,0.13345 -0.36381,0 -0.51264,-0.06 -0.33073,-0.13345 z m -11.04636,-1.27998 c 0.34178,-0.3638 0.68094,-0.66146 0.7537,-0.66146 0.0728,0 -0.14734,0.29766 -0.48911,0.66146 -0.34178,0.3638 -0.68094,0.66146 -0.7537,0.66146 -0.0728,0 0.14734,-0.29766 0.48911,-0.66146 z m 18.16623,-2.45231 c 0.16877,-0.10738 0.35929,-0.55204 0.42338,-0.98813 0.10568,-0.7191 0.12021,-0.70055 0.15616,0.1993 0.0314,0.78501 -0.057,0.99134 -0.42337,0.98813 -0.30059,-0.003 -0.35537,-0.0725 -0.15617,-0.1993 z m 7.02077,-1.25185 c 0.005,-0.43657 0.0647,-0.58313 0.13177,-0.3257 0.0671,0.25743 0.0627,0.61462 -0.01,0.79375 -0.0725,0.17913 -0.12736,-0.0315 -0.12197,-0.46805 z m -104.611603,0.21613 c 0.190996,-0.0764 0.419199,-0.067 0.507118,0.0209 0.08792,0.0879 -0.06835,0.15045 -0.347265,0.13896 -0.308225,-0.0127 -0.37092,-0.0754 -0.159853,-0.15985 z m 6.35,0 c 0.190996,-0.0764 0.419199,-0.067 0.507118,0.0209 0.08792,0.0879 -0.06835,0.15045 -0.347266,0.13896 -0.308224,-0.0127 -0.370919,-0.0754 -0.159852,-0.15985 z m 80.433333,0 c 0.19099,-0.0764 0.4192,-0.067 0.50711,0.0209 0.0879,0.0879 -0.0683,0.15045 -0.34726,0.13896 -0.30823,-0.0127 -0.37092,-0.0754 -0.15985,-0.15985 z m 6.06888,0.006 c 0.1819,-0.0734 0.47955,-0.0734 0.66145,0 0.18191,0.0734 0.0331,0.13345 -0.33073,0.13345 -0.3638,0 -0.51263,-0.06 -0.33072,-0.13345 z m -90.355208,-0.27886 c 0.400183,-0.0606 1.055026,-0.0606 1.455208,0 0.400183,0.0606 0.07276,0.11022 -0.727604,0.11022 -0.800364,0 -1.127786,-0.0496 -0.727604,-0.11022 z m 8.70688,-0.33966 c 0,-0.3638 0.06005,-0.51263 0.133452,-0.33073 0.0734,0.1819 0.0734,0.47956 0,0.66146 -0.0734,0.1819 -0.133452,0.0331 -0.133452,-0.33073 z m 78.344668,0.33931 c 0.40219,-0.0608 0.9975,-0.0592 1.32292,0.004 0.32542,0.0628 -0.004,0.11256 -0.73124,0.11057 -0.72761,-0.002 -0.99386,-0.0534 -0.59168,-0.11418 z m -71.720281,-1.00077 c 0.0054,-0.43656 0.06469,-0.58312 0.131774,-0.32569 0.06708,0.25743 0.06267,0.61462 -0.0098,0.79375 -0.07248,0.17913 -0.127362,-0.0315 -0.12197,-0.46806 z m 105.517161,0.0283 c 0,-0.0572 0.18478,-0.17489 0.41062,-0.26155 0.23546,-0.0904 0.34166,-0.046 0.24897,0.10398 -0.15538,0.25141 -0.65959,0.37186 -0.65959,0.15757 z M 48.106184,188.61582 c 0.0127,-0.30822 0.07539,-0.37092 0.159852,-0.15985 0.07643,0.191 0.06703,0.4192 -0.02089,0.50712 -0.08792,0.0879 -0.150453,-0.0683 -0.138964,-0.34727 z M 114.628,186.91808 c 0.26339,-0.29104 0.53842,-0.52917 0.61118,-0.52917 0.0728,0 -0.0832,0.23813 -0.3466,0.52917 -0.26339,0.29104 -0.53842,0.52917 -0.61118,0.52917 -0.0728,0 0.0832,-0.23813 0.3466,-0.52917 z m -74.778536,-0.46302 c -0.329108,-0.41964 -0.319749,-0.429 0.0999,-0.0999 0.254661,0.19972 0.46302,0.40808 0.46302,0.46303 0,0.21776 -0.217272,0.0776 -0.562915,-0.36313 z m -6.388298,-1.8446 c 0.469697,-0.0584 1.303134,-0.0594 1.852083,-0.002 0.548949,0.0573 0.164651,0.1051 -0.853994,0.10627 -1.018646,0.001 -1.467786,-0.0457 -0.998089,-0.10413 z m 86.783324,0 c 0.4697,-0.0584 1.30314,-0.0594 1.85209,-0.002 0.54895,0.0573 0.16465,0.1051 -0.854,0.10627 -1.01864,0.001 -1.46778,-0.0457 -0.99809,-0.10413 z m -10.2467,-1.23186 c 0,-0.0549 0.20836,-0.2633 0.46302,-0.46302 0.41965,-0.32911 0.42901,-0.31975 0.0999,0.0999 -0.34565,0.44073 -0.56292,0.58088 -0.56292,0.36312 z m 21.13292,-1.15687 c -0.32911,-0.41965 -0.31975,-0.42901 0.0999,-0.0999 0.44073,0.34565 0.58089,0.56292 0.36313,0.56292 -0.0549,0 -0.2633,-0.20836 -0.46302,-0.46302 z m -99.251143,-2.88721 c 0.181901,-0.0734 0.479558,-0.0734 0.661459,0 0.181901,0.0734 0.03307,0.13345 -0.33073,0.13345 -0.363802,0 -0.51263,-0.0601 -0.330729,-0.13345 z m 5.308203,-0.006 c 0.190996,-0.0764 0.419199,-0.067 0.507118,0.0209 0.08792,0.0879 -0.06835,0.15046 -0.347265,0.13897 -0.308225,-0.0127 -0.37092,-0.0754 -0.159853,-0.15985 z m 81.21054,0.006 c 0.1819,-0.0734 0.47956,-0.0734 0.66146,0 0.1819,0.0734 0.0331,0.13345 -0.33073,0.13345 -0.3638,0 -0.51263,-0.0601 -0.33073,-0.13345 z m 5.29167,0 c 0.1819,-0.0734 0.47956,-0.0734 0.66146,0 0.1819,0.0734 0.0331,0.13345 -0.33073,0.13345 -0.3638,0 -0.51263,-0.0601 -0.33073,-0.13345 z m -58.100409,-3.26436 c 0,-0.3638 0.06005,-0.51263 0.133452,-0.33073 0.0734,0.18191 0.0734,0.47956 0,0.66146 -0.0734,0.1819 -0.133452,0.0331 -0.133452,-0.33073 z M 58.9541,175.12207 c 0.0127,-0.30822 0.07539,-0.37092 0.159852,-0.15985 0.07643,0.191 0.06703,0.4192 -0.02089,0.50712 -0.08792,0.0879 -0.150453,-0.0683 -0.138964,-0.34727 z m 23.477418,-0.29098 c 0.190996,-0.0764 0.419199,-0.067 0.507118,0.0209 0.08792,0.0879 -0.06835,0.15045 -0.347266,0.13896 -0.308224,-0.0127 -0.370919,-0.0754 -0.159852,-0.15985 z m 2.960026,-0.97749 c 0,-0.0549 0.208359,-0.2633 0.46302,-0.46302 0.419644,-0.32911 0.429003,-0.31975 0.0999,0.0999 -0.345643,0.44073 -0.562915,0.58088 -0.562915,0.36312 z m -11.590086,-2.14906 c 0.0054,-0.43656 0.06469,-0.58313 0.131773,-0.32569 0.06708,0.25743 0.06267,0.61461 -0.0098,0.79375 -0.07248,0.17913 -0.127362,-0.0315 -0.12197,-0.46806 z m 4.248476,-1.32292 c 0.0029,-0.58208 0.05712,-0.78905 0.120406,-0.45993 0.06329,0.32911 0.06088,0.80536 -0.0053,1.05833 -0.06622,0.25296 -0.118003,-0.0163 -0.115067,-0.5984 z m -16.338597,-1.71979 c 0.263389,-0.29104 0.53842,-0.52917 0.61118,-0.52917 0.07276,0 -0.08321,0.23813 -0.346597,0.52917 -0.263389,0.29104 -0.538421,0.52917 -0.611181,0.52917 -0.07276,0 0.08321,-0.23813 0.346598,-0.52917 z m 12.3449,-1.32292 c 0,-0.3638 0.06005,-0.51263 0.133452,-0.33073 0.0734,0.18191 0.0734,0.47956 0,0.66146 -0.0734,0.1819 -0.133452,0.0331 -0.133452,-0.33073 z m 5.24989,-0.0999 c 0,-0.0549 0.20836,-0.2633 0.463021,-0.46302 0.419644,-0.32911 0.429002,-0.31975 0.0999,0.0999 -0.345644,0.44073 -0.562916,0.58089 -0.562916,0.36313 z M 120.978,162.38733 c -2.24763,-0.54242 -3.55009,-2.26197 -4.47001,-5.90144 -1.03097,-4.07884 -1.30174,-7.68742 -1.14575,-15.26969 0.24031,-11.6808 1.79797,-20.50258 5.37499,-30.44122 4.77345,-13.2629 13.84446,-24.800784 21.62568,-27.506824 4.02536,-1.399885 6.17159,-0.0061 7.04606,4.575938 0.20123,1.0544 0.27472,4.930082 0.22231,11.724896 l -0.0783,10.14987 -1.41117,0.52635 c -2.33935,0.87255 -4.53143,2.55325 -6.00721,4.60582 -1.56332,2.17434 -2.24457,4.02121 -2.43075,6.58982 -0.36832,5.08147 2.5251,10.11796 7.13865,12.42603 1.02054,0.51055 2.06843,0.92828 2.32863,0.92828 0.43711,0 0.47535,0.38993 0.50266,5.12629 0.0336,5.83188 -0.28999,7.41357 -1.9981,9.76573 -1.30116,1.79176 -3.26413,2.93278 -7.39685,4.29957 -4.22614,1.39769 -4.35789,1.46163 -10.07217,4.88885 -5.12683,3.07488 -7.42118,3.94793 -9.22869,3.51173 z m 60.60982,-0.0961 c -0.57096,-0.14013 -1.85754,-0.67239 -2.85907,-1.1828 -2.27295,-1.15835 -7.41337,-4.3179 -7.67431,-4.71699 -0.10691,-0.16352 -0.1962,-0.21407 -0.19843,-0.11234 -0.002,0.10173 -0.68866,-0.15382 -1.52541,-0.56788 -0.83674,-0.41407 -2.59291,-1.08386 -3.9026,-1.48842 -1.30969,-0.40457 -2.42119,-0.83437 -2.47,-0.95513 -0.0488,-0.12075 -0.1929,-0.15517 -0.32021,-0.0765 -0.42081,0.26008 -3.2754,-1.38684 -4.4302,-2.55594 -1.14858,-1.16282 -2.58073,-3.75159 -2.3141,-4.18301 0.0798,-0.12913 -0.004,-0.28454 -0.18728,-0.34536 -0.24889,-0.0828 -0.35467,-1.50791 -0.42114,-5.67355 l -0.0888,-5.56295 0.8023,-0.16046 c 0.44126,-0.0883 1.22751,-0.33813 1.74721,-0.55527 0.5197,-0.21715 1.00189,-0.40043 1.07153,-0.4073 0.56366,-0.0556 4.90198,-4.44114 5.0702,-5.12538 0.15245,-0.62011 1.01239,-2.71153 1.16059,-2.82262 0.26631,-0.19963 0.21847,-6.87917 -0.0493,-6.87917 -0.12778,0 -0.23242,-0.14882 -0.23254,-0.33073 -1.1e-4,-0.1819 -0.3576,-1.08619 -0.79441,-2.00953 -0.95573,-2.02024 -3.5029,-4.65206 -5.42309,-5.60332 -0.7276,-0.36046 -1.38245,-0.71491 -1.45521,-0.78767 -0.0728,-0.0728 -0.42994,-0.17235 -0.79375,-0.22131 -0.3638,-0.049 -0.75809,-0.18132 -0.87621,-0.29413 -0.11811,-0.1128 -0.17764,-5.10757 -0.13229,-11.099475 0.0674,-8.904183 0.14907,-10.935503 0.44709,-11.119521 0.20054,-0.123831 0.28366,-0.356149 0.18471,-0.516263 -0.099,-0.160113 0.0463,-0.802436 0.3227,-1.427384 2.30597,-5.213028 8.81727,-3.012858 16.88747,5.706285 1.5904,1.718285 5.28981,6.897256 5.44491,7.622566 0.0434,0.202965 0.14825,0.428559 0.233,0.501319 0.58789,0.50475 2.81661,4.948833 2.68695,5.357813 -0.0346,0.10914 0.0432,0.19844 0.17284,0.19844 0.5849,0 5.04163,12.34554 4.6724,12.94296 -0.0819,0.13256 -0.045,0.28094 0.0821,0.32975 0.23655,0.0909 1.37597,4.65047 1.87346,7.49708 2.44223,13.97414 1.85439,30.0638 -1.26588,34.64821 -1.22363,1.79779 -3.21986,2.52218 -5.44531,1.97597 z M 150.0162,132.81566 c -0.76389,-0.21495 -1.84167,-0.6218 -2.39507,-0.90413 -1.27946,-0.65273 -3.80457,-2.91023 -3.60906,-3.22657 0.0815,-0.13189 0.0155,-0.2398 -0.14664,-0.2398 -0.38062,0 -1.63643,-2.73796 -1.71522,-3.73958 -0.0333,-0.42306 -0.13744,-0.84614 -0.23147,-0.94016 -0.094,-0.094 -0.17095,-0.72658 -0.17095,-1.40567 0,-0.6791 0.0769,-1.31165 0.17095,-1.40568 0.094,-0.094 0.19818,-0.51709 0.23147,-0.94016 0.11001,-1.39847 1.40748,-3.75491 2.87611,-5.22355 1.41737,-1.41737 4.13038,-2.94376 4.65546,-2.61924 0.14745,0.0911 0.26809,0.0373 0.26809,-0.11955 0,-0.17214 0.26228,-0.21941 0.66146,-0.11922 0.40757,0.10229 0.66146,0.0534 0.66146,-0.12725 0,-0.17553 0.5311,-0.29327 1.32292,-0.29327 0.79181,0 1.32291,0.11774 1.32291,0.29327 0,0.1807 0.2539,0.22954 0.66146,0.12725 0.39918,-0.10019 0.66146,-0.0529 0.66146,0.11922 0,0.15688 0.11433,0.21458 0.25407,0.12822 0.75522,-0.46676 6.14409,3.37445 5.71288,4.07216 -0.0787,0.12733 0.0519,0.30632 0.29015,0.39776 0.23827,0.0914 0.36232,0.23715 0.27566,0.3238 -0.0867,0.0867 0.007,0.32206 0.20799,0.52312 0.62987,0.62987 1.14228,3.05238 1.08461,5.1277 -0.0552,1.98507 -0.77368,4.7625 -1.23204,4.7625 -0.13383,0 -0.21355,0.10199 -0.17717,0.22664 0.0788,0.2702 -1.66119,2.76443 -1.81867,2.60695 -0.06,-0.06 -0.5084,0.26763 -0.99652,0.72799 -1.88355,1.77642 -6.03093,2.65382 -8.8263,1.86725 z m 4.49398,-4.15587 c 1.34128,-0.40185 3.51969,-2.35299 3.94727,-3.53543 0.18149,-0.50189 0.39536,-0.91251 0.47526,-0.91248 0.0799,3e-5 0.13482,-0.74411 0.12202,-1.65364 -0.0337,-2.39642 -1.30103,-4.72592 -3.07245,-5.64759 -1.02941,-0.53561 -1.26991,-0.46551 -1.26991,0.37011 0,0.49971 0.30064,1.03323 0.92106,1.63457 1.06125,1.0286 1.43981,2.01897 1.42593,3.73035 -0.0276,3.40073 -3.74607,5.54863 -6.70479,3.87287 -1.08179,-0.6127 -2.3586,-2.19251 -2.1044,-2.6038 0.0789,-0.12765 0.0173,-0.23209 -0.13676,-0.23209 -0.1557,0 -0.2802,-0.52903 -0.2802,-1.19062 0,-0.69408 0.12215,-1.19063 0.29289,-1.19063 0.16109,0 0.23089,-0.16157 0.15511,-0.35905 -0.16672,-0.43445 0.58576,-1.63755 1.36601,-2.18406 0.41791,-0.29272 0.56724,-0.67375 0.56724,-1.44743 v -1.05013 l -0.82671,0.46982 c -0.45469,0.2584 -1.0258,0.57692 -1.26913,0.70783 -0.24333,0.13091 -0.5701,0.4881 -0.72615,0.79375 -0.15605,0.30565 -0.50012,0.96973 -0.76461,1.47573 -1.20821,2.31149 -0.50378,5.79587 1.52236,7.53016 1.83718,1.57257 4.13909,2.08715 6.35996,1.42176 z m -1.40982,-6.66738 c 0.20533,-0.24741 0.2807,-1.52159 0.23084,-3.90261 -0.0733,-3.50068 -0.0802,-3.53613 -0.70557,-3.62456 -0.34735,-0.0491 -0.73248,0.07 -0.85585,0.26459 -0.36012,0.56815 -0.28596,6.94136 0.0851,7.31242 0.41961,0.4196 0.87087,0.40155 1.24549,-0.0498 z"
         id="path2" /><path
         style="fill:#2d363f"
         d="m 173.77654,225.12508 c -0.79257,-0.21304 -1.49506,-0.44137 -1.56109,-0.5074 -0.066,-0.066 0.10625,-1.28287 0.38286,-2.7041 0.39583,-2.0338 0.5874,-2.55832 0.89964,-2.46327 0.21819,0.0664 1.18056,0.16471 2.1386,0.21842 1.57923,0.0885 1.82101,0.0311 2.58919,-0.61531 1.12001,-0.94242 1.88659,-2.42215 3.62689,-7.00099 l 0.65406,-1.72086 -1.61922,-3.96768 c -5.00243,-12.25785 -10.56468,-26.06111 -10.56468,-26.21729 0,-0.0592 1.59395,-0.10769 3.5421,-0.10769 h 3.54211 l 0.67371,1.65365 c 0.62604,1.53663 1.89022,4.88149 3.52495,9.32656 0.37462,1.01865 0.95337,2.56646 1.28611,3.43959 0.63798,1.67405 2.11276,5.58316 2.57034,6.81302 0.32846,0.88281 0.6395,0.92966 0.87831,0.13229 0.0981,-0.32742 1.81904,-5.00063 3.8244,-10.3849 2.00536,-5.38427 3.72711,-10.05747 3.82612,-10.38489 0.175,-0.57876 0.27854,-0.59532 3.7222,-0.59532 h 3.54218 l -0.6259,1.65365 c -0.34424,0.9095 -1.77638,4.57068 -3.18252,8.13594 -4.05507,10.28159 -4.23519,10.7396 -6.08682,15.47812 -6.18787,15.83538 -6.73934,16.97491 -9.06208,18.7255 -1.94345,1.46472 -5.46027,1.91579 -8.52146,1.09296 z M 30.235374,211.75173 c -3.18226,-0.44875 -5.628106,-1.70492 -7.322886,-3.76098 -2.837124,-3.44193 -2.758434,-9.1942 0.171395,-12.5289 1.549255,-1.76336 4.561177,-3.32364 7.311275,-3.7875 3.182665,-0.53683 7.480625,-0.16337 11.182557,0.97167 0.473903,0.1453 0.493327,0.041 0.326537,-1.75362 -0.264501,-2.84592 -1.239211,-4.34511 -3.568813,-5.48914 -1.321374,-0.64891 -1.786754,-0.73315 -4.008476,-0.72563 -3.045253,0.0103 -4.35023,0.51202 -6.417793,2.46743 l -1.390308,1.3149 -2.11522,-1.43275 c -1.163371,-0.78802 -2.151421,-1.59927 -2.195667,-1.8028 -0.132555,-0.60973 2.639918,-3.21543 4.327403,-4.06709 2.243503,-1.13228 4.081339,-1.61832 6.838752,-1.80859 6.600774,-0.45547 11.861681,2.03627 13.90204,6.58447 1.142226,2.54616 1.338292,4.8046 1.338292,15.41548 v 9.64648 h -3.175 -3.174999 v -2.01471 -2.01471 l -1.756212,1.64285 c -2.854944,2.67066 -6.25224,3.71011 -10.272877,3.14314 z m 6.869714,-5.89532 c 2.649546,-1.20411 4.450539,-3.67202 4.788773,-6.56207 0.174322,-1.4895 0.1647,-1.51921 -0.585979,-1.80947 -2.81999,-1.09038 -7.574472,-1.40367 -9.952155,-0.6558 -3.266681,1.0275 -4.72885,3.99851 -3.403784,6.91623 1.23568,2.72089 5.597645,3.72695 9.153145,2.11111 z m 79.771872,5.90257 c -5.32089,-0.88843 -8.53726,-3.75853 -9.2538,-8.25754 -0.91389,-5.73817 2.64114,-10.3725 8.98922,-11.71833 2.36941,-0.50232 7.24955,-0.36296 9.52499,0.27201 0.80037,0.22335 1.74057,0.48702 2.08934,0.58595 l 0.63413,0.17986 -0.19001,-1.69465 c -0.33413,-2.98001 -1.36723,-4.544 -3.85637,-5.83814 -1.00675,-0.52342 -1.57882,-0.61828 -3.70417,-0.61424 -2.18327,0.004 -2.71993,0.10081 -4.0843,0.73559 -0.9052,0.42115 -2.03137,1.2325 -2.65782,1.91484 l -1.08706,1.18403 -2.17083,-1.50046 c -1.19395,-0.82525 -2.17082,-1.68685 -2.17082,-1.91467 0,-0.22782 0.75428,-1.13584 1.67618,-2.01782 3.11714,-2.98217 7.93165,-4.29444 13.27809,-3.61917 4.3388,0.548 7.25805,2.13163 9.18479,4.98256 2.0214,2.99099 2.33665,5.409 2.28085,17.49438 l -0.0419,9.06198 h -3.13486 -3.13487 v -2.04057 -2.04058 l -1.25677,1.20739 c -1.8983,1.82371 -2.9397,2.48893 -4.82864,3.08443 -2.15583,0.67964 -4.20972,0.86633 -6.08542,0.55315 z m 6.48684,-5.70022 c 1.8153,-0.61733 4.12216,-2.93174 4.70812,-4.7235 0.23748,-0.72617 0.50946,-1.82364 0.6044,-2.43884 0.16258,-1.05351 0.12841,-1.13562 -0.58785,-1.41259 -1.40376,-0.54281 -4.44867,-1.07645 -6.31672,-1.10704 -3.34715,-0.0548 -5.76127,0.94546 -7.06959,2.92923 -0.57691,0.87477 -0.63415,3.46441 -0.0993,4.49239 0.69498,1.33572 2.10525,2.2626 4.25847,2.79881 0.85177,0.21211 3.07843,-0.0542 4.50247,-0.53846 z m -64.430588,-7.7636 v -12.7 h -2.645833 -2.645834 v -2.77812 -2.77813 h 2.608365 2.608364 l 0.135092,-2.85014 c 0.200323,-4.2264 0.939171,-6.3117 2.982554,-8.41787 2.196538,-2.26402 3.777067,-2.86743 7.540624,-2.8788 1.565855,-0.005 3.182215,0.13527 3.704167,0.32083 l 0.926042,0.32922 -0.171923,2.58119 c -0.09456,1.41966 -0.183855,2.71034 -0.198438,2.86818 -0.01803,0.19518 -0.513166,0.16072 -1.547868,-0.10771 -4.267243,-1.10706 -6.680729,1.09142 -6.680729,6.08557 v 2.06953 H 75.734252 85.92071 v 15.47813 15.47812 h -3.307291 -3.307292 v -12.7 -12.7 h -6.879166 -6.879166 v 12.7 12.7 h -3.307292 -3.307291 z m 35.454165,-9.66519 v -22.3652 l 3.373437,0.074 3.373436,0.074 0.0677,22.29115 0.0677,22.29114 h -3.441088 -3.441085 z m 45.436083,21.63851 c 0.25802,-0.39968 1.27777,-1.91772 2.26611,-3.37344 0.98834,-1.45571 3.18003,-4.69788 4.87043,-7.20482 l 3.07344,-4.55808 -0.76939,-1.20658 c -0.42316,-0.66362 -2.71173,-4.06283 -5.08571,-7.55379 l -4.31632,-6.3472 3.89057,0.0733 3.89058,0.0733 1.5341,2.38125 c 1.76108,2.73358 2.348,3.67102 3.80596,6.07895 0.57694,0.95287 1.13926,1.70132 1.24959,1.66322 0.11033,-0.0381 1.66602,-2.33145 3.45709,-5.09634 l 3.25649,-5.02708 3.79085,-0.0736 3.79086,-0.0736 -0.49172,0.80918 c -0.27045,0.44504 -2.54713,3.83922 -5.05929,7.54262 l -4.56756,6.73346 3.09224,4.5695 c 1.70072,2.51322 4.08355,6.03488 5.29516,7.8259 1.21161,1.79102 2.20293,3.30907 2.20293,3.37344 0,0.0644 -1.70201,0.11703 -3.78224,0.11703 h -3.78224 l -2.19216,-3.37343 c -1.20568,-1.85539 -2.77632,-4.29618 -3.4903,-5.42396 -0.71398,-1.12779 -1.38901,-2.04863 -1.50008,-2.04632 -0.11106,0.002 -0.79124,0.92505 -1.51151,2.05052 -0.72026,1.12548 -2.30129,3.56437 -3.51338,5.41976 l -2.20381,3.37343 h -3.83491 -3.8349 z M 80.069568,174.00159 c -1.361816,-0.87528 -1.821774,-1.80582 -1.821774,-3.68561 0,-2.61078 1.639146,-4.16769 4.387826,-4.16769 1.447827,0 1.772227,0.0997 2.665219,0.81937 1.202979,0.96946 1.771788,2.40897 1.596175,4.0395 -0.2303,2.13828 -1.764447,3.5201 -4.081602,3.67634 -1.335889,0.0901 -1.676251,0.006 -2.745844,-0.68191 z m 82.896472,-51.77413 c 0.005,-0.43657 0.0647,-0.58313 0.13177,-0.3257 0.0671,0.25743 0.0627,0.61462 -0.01,0.79375 -0.0725,0.17913 -0.12737,-0.0315 -0.12197,-0.46805 z m -12.27203,-10.3672 c 0.191,-0.0764 0.4192,-0.067 0.50712,0.0209 0.0879,0.0879 -0.0684,0.15046 -0.34726,0.13897 -0.30823,-0.0127 -0.37092,-0.0754 -0.15986,-0.15985 z m 3.43959,0 c 0.19099,-0.0764 0.4192,-0.067 0.50712,0.0209 0.0879,0.0879 -0.0684,0.15046 -0.34727,0.13897 -0.30822,-0.0127 -0.37092,-0.0754 -0.15985,-0.15985 z"
         id="path1" /></g></g></svg>
