<?xml version="1.0" encoding="UTF-8" standalone="no"?>
<!-- Created with Inkscape (http://www.inkscape.org/) -->

<svg
   width="210mm"
   height="297mm"
   viewBox="0 0 210 297"
   version="1.1"
   id="svg1"
   xml:space="preserve"
   inkscape:version="1.4.2 (ebf0e940d0, 2025-05-08)"
   sodipodi:docname="logo_master.svg"
   xmlns:inkscape="http://www.inkscape.org/namespaces/inkscape"
   xmlns:sodipodi="http://sodipodi.sourceforge.net/DTD/sodipodi-0.dtd"
   xmlns="http://www.w3.org/2000/svg"
   xmlns:svg="http://www.w3.org/2000/svg"><sodipodi:namedview
     id="namedview1"
     pagecolor="#ffffff"
     bordercolor="#000000"
     borderopacity="0.25"
     inkscape:showpageshadow="2"
     inkscape:pageopacity="0.0"
     inkscape:pagecheckerboard="0"
     inkscape:deskcolor="#d1d1d1"
     inkscape:document-units="mm"
     inkscape:zoom="0.54520202"
     inkscape:cx="396.18342"
     inkscape:cy="561.25984"
     inkscape:window-width="1440"
     inkscape:window-height="863"
     inkscape:window-x="0"
     inkscape:window-y="0"
     inkscape:window-maximized="1"
     inkscape:current-layer="layer1" /><defs
     id="defs1" /><g
     inkscape:label="Layer 1"
     inkscape:groupmode="layer"
     id="layer1"><path
       style="fill:#236fa6"
       d="m 48.015408,213.72594 c -4.188355,-0.91864 -6.429927,-4.47319 -8.338781,-13.22313 -1.817122,-8.32945 -1.608737,-33.60649 0.379379,-46.01873 3.009545,-18.78923 8.453066,-35.6099 15.707996,-48.53825 10.73101,-19.122758 25.726046,-32.800984 36.0442,-32.87893 4.064348,-0.0307 5.87463,1.336073 7.539121,5.692088 0.935537,2.448314 1.156867,5.91916 1.383417,21.694022 0.19227,13.388 0.0599,19.02588 -0.46093,19.63795 -0.401847,0.47221 -1.518617,1.04452 -2.481713,1.27181 -2.979546,0.70317 -8.423405,4.61768 -10.781368,7.75254 -9.884934,13.14184 -3.584582,31.00377 12.817369,36.33814 1.114742,0.36254 1.182762,1.06159 0.942052,9.68254 -0.22207,7.95377 -0.46966,9.74567 -1.719396,12.44375 -2.826058,6.10127 -5.92356,8.28103 -16.95892,11.93425 -4.230918,1.40063 -9.342607,3.78102 -14.117567,6.57419 -12.618164,7.38117 -15.716982,8.56725 -19.954859,7.63776 z m 110.862912,-0.0582 c -3.02447,-0.67522 -4.55778,-1.44306 -14.65947,-7.34099 -5.63508,-3.29007 -10.10139,-5.35568 -14.86718,-6.87587 -11.03189,-3.51893 -14.25082,-5.91959 -16.78126,-12.51534 -1.12863,-2.94184 -1.34302,-4.93237 -1.34302,-12.46973 v -8.9691 l 3.13177,-1.08476 c 6.14342,-2.12792 12.18928,-8.49542 14.07601,-14.82486 1.56177,-5.23928 0.98947,-12.24653 -1.37196,-16.79825 -2.38572,-4.59852 -7.40814,-9.18201 -12.15922,-11.09655 l -3.75699,-1.51396 0.20919,-19.88274 c 0.18485,-17.569088 0.34634,-20.190153 1.3878,-22.524445 3.6802,-8.248632 13.84118,-5.932998 26.50354,6.040018 16.06728,15.192563 27.52291,39.975307 32.56775,70.455997 1.66018,10.03074 1.65366,41.45721 -0.01,47.78545 -2.58262,9.82429 -6.23781,13.10853 -12.92704,11.61513 z m -58.79317,-52.53462 c -10.765043,-4.02822 -16.090888,-15.075 -12.084137,-25.06472 1.739552,-4.33709 5.153907,-7.76894 9.975197,-10.02632 10.49543,-4.91406 22.73056,0.36575 26.19475,11.30381 1.51227,4.77491 1.56739,6.38969 0.35147,10.29686 -1.84323,5.92295 -5.19225,9.84519 -10.70944,12.54249 -3.6374,1.77828 -10.28248,2.23711 -13.72784,0.94788 z m 9.40662,-6.69349 c 5.8582,-1.58646 9.63949,-8.35624 8.05906,-14.42844 -0.75465,-2.89949 -4.86247,-7.59089 -6.64664,-7.59089 -1.28391,0 -1.30961,3.52023 -0.0292,3.9994 1.21658,0.45529 3.5851,4.98458 3.58198,6.84978 -0.006,3.35766 -4.81909,8.05478 -8.25993,8.06027 -2.6231,0.004 -5.89753,-1.7608 -7.234661,-3.89966 -2.208004,-3.53189 -1.455637,-7.93064 1.856451,-10.85382 1.54826,-1.36646 1.8429,-4.15597 0.43897,-4.15597 -1.565958,0 -5.022369,3.28795 -6.268171,5.96266 -2.903414,6.23358 0.29409,13.49228 6.965291,15.81199 3.04766,1.05973 4.3688,1.10262 7.53685,0.24468 z m -2.27205,-12.05911 c 0.48317,-0.4712 0.77568,-2.80299 0.77568,-6.18345 0,-5.80977 -0.8727,-8.09314 -2.81532,-7.36614 -0.89189,0.33377 -1.06308,1.45001 -1.06308,6.93169 0,3.59362 0.19392,6.72297 0.43094,6.95411 0.66207,0.64568 1.81354,0.50078 2.67178,-0.33621 z"
       id="path1" /></g></svg>
